<?xml version="1.0" encoding="UTF-8" standalone="no"?>
<!-- Generator: Adobe Illustrator 25.3.1, SVG Export Plug-In . SVG Version: 6.00 Build 0)  -->

<svg
   version="1.1"
   id="Layer_1"
   x="0px"
   y="0px"
   viewBox="0 0 192.21 260.71"
   style="enable-background:new 0 0 192.21 260.71;"
   xml:space="preserve"
   sodipodi:docname="BOBA.svg"
   inkscape:version="1.1.1 (3bf5ae0d25, 2021-09-20)"
   xmlns:inkscape="http://www.inkscape.org/namespaces/inkscape"
   xmlns:sodipodi="http://sodipodi.sourceforge.net/DTD/sodipodi-0.dtd"
   xmlns="http://www.w3.org/2000/svg"
   xmlns:svg="http://www.w3.org/2000/svg"><defs
   id="defs53" /><sodipodi:namedview
   id="namedview51"
   pagecolor="#ffffff"
   bordercolor="#666666"
   borderopacity="1.0"
   inkscape:pageshadow="2"
   inkscape:pageopacity="0.0"
   inkscape:pagecheckerboard="0"
   showgrid="false"
   inkscape:zoom="1.5956427"
   inkscape:cx="84.918759"
   inkscape:cy="207.12657"
   inkscape:window-width="2293"
   inkscape:window-height="897"
   inkscape:window-x="407"
   inkscape:window-y="-8"
   inkscape:window-maximized="1"
   inkscape:current-layer="Layer_1" />
<style
   type="text/css"
   id="style2">
	.st0{fill:#CCFF00;}
	.st1{fill:#1CD8D2;}
</style>
<g
   id="g48"
   transform="matrix(1.7705157,0,0,1.4772798,-76.798593,-61.276403)">
	<g
   id="g10">
		<g
   id="g8">
			<g
   id="g6">
				<path
   class="st0"
   d="m 69.54,162.64 c -3.15,0 -5.81,-2.25 -6.34,-5.36 L 45.27,51.86 c -0.29,-1.7 0.1,-3.4 1.1,-4.8 1,-1.4 2.48,-2.33 4.17,-2.62 3.5,-0.59 6.83,1.77 7.43,5.27 L 75.9,155.13 c 0.29,1.7 -0.1,3.4 -1.1,4.8 -1,1.4 -2.48,2.33 -4.17,2.62 -0.35,0.06 -0.72,0.09 -1.09,0.09 z"
   id="path4" />
			</g>
		</g>
	</g>
	<g
   id="g14">
		<path
   class="st0"
   d="m 69.54,162.64 c -3.15,0 -5.81,-2.25 -6.34,-5.36 L 45.27,51.86 c -0.29,-1.7 0.1,-3.4 1.1,-4.8 1,-1.4 2.48,-2.33 4.17,-2.62 3.5,-0.59 6.83,1.77 7.43,5.27 L 75.9,155.13 c 0.29,1.7 -0.1,3.4 -1.1,4.8 -1,1.4 -2.48,2.33 -4.17,2.62 -0.35,0.06 -0.72,0.09 -1.09,0.09 z"
   id="path12" />
	</g>
	<path
   class="st0"
   d="m 99.59,114.02 c -10.25,0 -19.78,3.07 -27.75,8.34 l 2.17,12.76 c 6.85,-5.97 15.8,-9.6 25.58,-9.6 21.51,0 39.01,17.5 39.01,39.01 0,21.51 -17.5,39.01 -39.01,39.01 -21.51,0 -39.01,-17.5 -39.01,-39.01 0,-2.87 0.32,-5.66 0.91,-8.35 l -3.46,-20.31 c -5.64,8.15 -8.95,18.03 -8.95,28.67 0,27.85 22.66,50.51 50.51,50.51 27.85,0 50.51,-22.66 50.51,-50.51 0,-27.85 -22.65,-50.52 -50.51,-50.52 z"
   id="path16" />
	<g
   id="g46">
		<g
   id="g20">
			<circle
   class="st1"
   cx="96.830002"
   cy="187.13"
   r="6.8800001"
   id="circle18" />
		</g>
		<g
   id="g24">
			<circle
   class="st1"
   cx="118.32"
   cy="179.12"
   r="6.8800001"
   id="circle22" />
		</g>
		<g
   id="g28">
			<circle
   class="st1"
   cx="101.43"
   cy="164.37"
   r="6.8800001"
   id="circle26" />
		</g>
		<g
   id="g32">
			<circle
   class="st1"
   cx="80.07"
   cy="171.39999"
   r="6.8800001"
   id="circle30" />
		</g>
		<g
   id="g36">
			<circle
   class="st1"
   cx="122.72"
   cy="157.32001"
   r="6.8800001"
   id="circle34" />
		</g>
		<g
   id="g40">
			<circle
   class="st1"
   cx="106.02"
   cy="141.61"
   r="6.8800001"
   id="circle38" />
		</g>
		<g
   id="g44">
			<circle
   class="st1"
   cx="84.459999"
   cy="149.61"
   r="6.8800001"
   id="circle42" />
		</g>
	</g>
</g>
</svg>
